<svg width="674" height="67" viewBox="0 0 674 67" fill="none" xmlns="http://www.w3.org/2000/svg">
<path d="M9.90906 42H2.70906V9.84H9.90906V42ZM29.2051 30H4.72506V23.568H29.2051V30ZM29.9251 16.32H4.72506V9.84H29.9251V16.32ZM40.1903 42H32.9903V17.952H40.1903V42ZM40.1903 15.504H32.9903V9.84H40.1903V15.504ZM70.5511 42H63.3511V29.424C63.3511 27.472 62.9031 26.08 62.0071 25.248C61.1111 24.384 59.5591 23.952 57.3511 23.952C55.0471 23.952 53.4311 24.432 52.5031 25.392C51.6071 26.32 51.1591 27.808 51.1591 29.856H50.2471L49.7191 25.344H51.0631C51.2871 24 51.7671 22.736 52.5031 21.552C53.2391 20.336 54.2791 19.36 55.6231 18.624C56.9991 17.856 58.7431 17.472 60.8551 17.472C63.0311 17.472 64.8391 17.904 66.2791 18.768C67.7191 19.6 68.7911 20.736 69.4951 22.176C70.1991 23.616 70.5511 25.232 70.5511 27.024V42ZM51.1591 42H43.9591V17.952H50.6311V25.44L51.1591 25.68V42ZM84.9454 42.48C82.4494 42.48 80.3374 41.968 78.6094 40.944C76.8814 39.92 75.5694 38.48 74.6734 36.624C73.7774 34.736 73.3294 32.528 73.3294 30C73.3294 27.44 73.7614 25.232 74.6254 23.376C75.5214 21.488 76.8014 20.032 78.4654 19.008C80.1614 17.984 82.1934 17.472 84.5614 17.472C87.4094 17.472 89.6014 18.112 91.1374 19.392C92.6734 20.672 93.6334 22.32 94.0174 24.336H95.3614V29.76H94.4494C94.4494 27.68 93.8414 26.208 92.6254 25.344C91.4414 24.48 89.6974 24.048 87.3934 24.048C85.8574 24.048 84.5774 24.24 83.5534 24.624C82.5614 25.008 81.8254 25.632 81.3454 26.496C80.8654 27.328 80.6254 28.496 80.6254 30C80.6254 31.44 80.8654 32.592 81.3454 33.456C81.8254 34.32 82.5614 34.944 83.5534 35.328C84.5774 35.712 85.8574 35.904 87.3934 35.904C88.9294 35.904 90.2094 35.712 91.2334 35.328C92.2894 34.944 93.0894 34.336 93.6334 33.504C94.1774 32.64 94.4494 31.52 94.4494 30.144H95.3614L95.8414 35.328H94.5454C94.0974 37.696 93.0734 39.488 91.4734 40.704C89.8734 41.888 87.6974 42.48 84.9454 42.48ZM101.649 42H94.9294V34.896L94.4494 34.272V9.84H101.649V42ZM117.473 50.16H113.537V43.632H119.441C120.337 43.632 121.009 43.504 121.457 43.248C121.905 42.992 122.273 42.544 122.561 41.904L123.569 39.552L122.849 42.912L110.705 17.952H118.865L123.953 28.944L125.969 34.608H126.449L128.369 28.896L132.929 17.952H140.945L129.041 43.728C128.273 45.392 127.377 46.688 126.353 47.616C125.329 48.576 124.097 49.232 122.657 49.584C121.217 49.968 119.489 50.16 117.473 50.16ZM155.494 42.48C152.774 42.48 150.374 41.968 148.294 40.944C146.246 39.92 144.646 38.48 143.494 36.624C142.342 34.736 141.766 32.528 141.766 30C141.766 27.44 142.342 25.232 143.494 23.376C144.646 21.488 146.246 20.032 148.294 19.008C150.374 17.984 152.774 17.472 155.494 17.472C158.246 17.472 160.646 17.984 162.694 19.008C164.742 20.032 166.342 21.488 167.494 23.376C168.646 25.232 169.222 27.44 169.222 30C169.222 32.528 168.646 34.736 167.494 36.624C166.342 38.48 164.742 39.92 162.694 40.944C160.646 41.968 158.246 42.48 155.494 42.48ZM155.494 36.096C157.926 36.096 159.622 35.616 160.582 34.656C161.574 33.664 162.07 32.112 162.07 30C162.07 27.856 161.574 26.288 160.582 25.296C159.622 24.304 157.926 23.808 155.494 23.808C153.062 23.808 151.35 24.304 150.358 25.296C149.398 26.288 148.918 27.856 148.918 30C148.918 32.112 149.398 33.664 150.358 34.656C151.35 35.616 153.062 36.096 155.494 36.096ZM182.098 42.48C179.858 42.48 177.986 42.064 176.482 41.232C175.01 40.368 173.906 39.216 173.17 37.776C172.466 36.336 172.114 34.72 172.114 32.928V17.952H179.314V30.528C179.314 32.448 179.778 33.856 180.706 34.752C181.634 35.616 183.234 36.048 185.506 36.048C187.874 36.048 189.522 35.584 190.45 34.656C191.41 33.696 191.89 32.192 191.89 30.144L192.802 30.096L193.33 34.656H191.986C191.794 36 191.314 37.264 190.546 38.448C189.81 39.632 188.738 40.608 187.33 41.376C185.954 42.112 184.21 42.48 182.098 42.48ZM199.09 42H192.37V34.56L191.89 34.32V17.952H199.09V42ZM209.972 42H202.772V17.952H209.444V24.816L209.972 25.056V42ZM209.972 28.08H208.532V24.336H209.876C210.1 23.024 210.532 21.856 211.172 20.832C211.844 19.776 212.74 18.96 213.86 18.384C214.98 17.776 216.34 17.472 217.94 17.472C219.764 17.472 221.22 17.856 222.308 18.624C223.428 19.36 224.244 20.368 224.756 21.648C225.268 22.896 225.524 24.304 225.524 25.872V29.856H218.324V27.36C218.324 26.016 218.02 25.056 217.412 24.48C216.836 23.872 215.812 23.568 214.34 23.568C212.74 23.568 211.604 23.936 210.932 24.672C210.292 25.408 209.972 26.544 209.972 28.08Z" fill="#25324B"/>
<path d="M255.492 42.48C252.996 42.48 250.884 41.968 249.156 40.944C247.428 39.92 246.116 38.48 245.22 36.624C244.324 34.736 243.876 32.528 243.876 30C243.876 27.44 244.308 25.232 245.172 23.376C246.068 21.488 247.348 20.032 249.012 19.008C250.708 17.984 252.74 17.472 255.108 17.472C257.956 17.472 260.148 18.112 261.684 19.392C263.22 20.672 264.18 22.32 264.564 24.336H265.908V29.76H264.996C264.996 27.68 264.388 26.208 263.172 25.344C261.988 24.48 260.244 24.048 257.94 24.048C256.404 24.048 255.124 24.24 254.1 24.624C253.108 25.008 252.372 25.632 251.892 26.496C251.412 27.328 251.172 28.496 251.172 30C251.172 31.44 251.412 32.592 251.892 33.456C252.372 34.32 253.108 34.944 254.1 35.328C255.124 35.712 256.404 35.904 257.94 35.904C259.476 35.904 260.756 35.712 261.78 35.328C262.836 34.944 263.636 34.336 264.18 33.504C264.724 32.64 264.996 31.52 264.996 30.144H265.908L266.388 35.328H265.092C264.644 37.696 263.62 39.488 262.02 40.704C260.42 41.888 258.244 42.48 255.492 42.48ZM272.196 42H265.476V34.896L264.996 34.272V9.84H272.196V42ZM283.206 42H276.006V17.952H282.678V24.816L283.206 25.056V42ZM283.206 28.08H281.766V24.336H283.11C283.334 23.024 283.766 21.856 284.406 20.832C285.078 19.776 285.974 18.96 287.094 18.384C288.214 17.776 289.574 17.472 291.174 17.472C292.998 17.472 294.454 17.856 295.542 18.624C296.662 19.36 297.478 20.368 297.99 21.648C298.502 22.896 298.758 24.304 298.758 25.872V29.856H291.558V27.36C291.558 26.016 291.254 25.056 290.646 24.48C290.07 23.872 289.046 23.568 287.574 23.568C285.974 23.568 284.838 23.936 284.166 24.672C283.526 25.408 283.206 26.544 283.206 28.08ZM314.133 42.48C311.477 42.48 309.125 42.032 307.077 41.136C305.029 40.24 303.445 38.864 302.325 37.008C301.205 35.152 300.645 32.816 300.645 30C300.645 27.44 301.205 25.232 302.325 23.376C303.445 21.488 304.997 20.032 306.981 19.008C308.997 17.984 311.333 17.472 313.989 17.472C316.613 17.472 318.901 17.92 320.853 18.816C322.837 19.712 324.373 21.04 325.461 22.8C326.549 24.528 327.093 26.64 327.093 29.136C327.093 29.552 327.077 29.936 327.045 30.288C327.013 30.64 326.965 31.024 326.901 31.44H305.301V27.648H321.813L320.181 30C320.181 29.68 320.181 29.376 320.181 29.088C320.181 28.8 320.181 28.512 320.181 28.224C320.181 26.4 319.685 25.088 318.693 24.288C317.701 23.488 316.085 23.088 313.845 23.088C311.413 23.088 309.717 23.568 308.757 24.528C307.797 25.456 307.317 26.944 307.317 28.992V30.816C307.317 32.864 307.797 34.368 308.757 35.328C309.717 36.256 311.429 36.72 313.893 36.72C316.005 36.72 317.493 36.448 318.357 35.904C319.221 35.36 319.653 34.576 319.653 33.552V33.072H326.853V33.6C326.853 35.328 326.325 36.864 325.269 38.208C324.213 39.552 322.725 40.608 320.805 41.376C318.917 42.112 316.693 42.48 314.133 42.48ZM354.435 42H347.715V36.288L347.331 36.192V27.792C347.331 26.224 346.931 25.168 346.131 24.624C345.363 24.08 344.019 23.808 342.099 23.808C340.275 23.808 338.963 24.08 338.163 24.624C337.363 25.168 336.963 26.128 336.963 27.504V27.696H329.715V27.552C329.715 25.568 330.243 23.824 331.299 22.32C332.355 20.784 333.843 19.6 335.763 18.768C337.715 17.904 340.003 17.472 342.627 17.472C345.315 17.472 347.523 17.904 349.251 18.768C351.011 19.632 352.307 20.848 353.139 22.416C354.003 23.952 354.435 25.776 354.435 27.888V42ZM337.539 42.48C334.947 42.48 332.915 41.904 331.443 40.752C329.971 39.6 329.235 38.032 329.235 36.048C329.235 34.832 329.523 33.792 330.099 32.928C330.675 32.064 331.539 31.376 332.691 30.864C333.843 30.32 335.283 29.952 337.011 29.76L347.811 28.656V32.784L338.979 33.792C338.115 33.856 337.475 34.032 337.059 34.32C336.675 34.576 336.483 34.992 336.483 35.568C336.483 36.208 336.739 36.672 337.251 36.96C337.763 37.248 338.547 37.392 339.603 37.392C341.331 37.392 342.755 37.232 343.875 36.912C344.995 36.592 345.843 36.08 346.419 35.376C347.027 34.64 347.331 33.664 347.331 32.448L348.003 32.4V36.48H347.331C346.787 38.336 345.683 39.808 344.019 40.896C342.387 41.952 340.227 42.48 337.539 42.48ZM401.956 42H394.756V29.424C394.756 27.44 394.356 26.032 393.556 25.2C392.756 24.368 391.316 23.952 389.236 23.952C387.06 23.952 385.572 24.416 384.772 25.344C384.004 26.272 383.62 27.776 383.62 29.856H382.708L382.132 25.344H383.524C383.716 23.968 384.132 22.688 384.772 21.504C385.444 20.32 386.42 19.36 387.7 18.624C389.012 17.856 390.692 17.472 392.74 17.472C394.82 17.472 396.532 17.888 397.876 18.72C399.252 19.552 400.276 20.688 400.948 22.128C401.62 23.568 401.956 25.2 401.956 27.024V42ZM365.284 42H358.084V17.952H364.756V25.44L365.284 25.68V42ZM383.62 42H376.42V29.424C376.42 27.44 376.02 26.032 375.22 25.2C374.42 24.368 372.98 23.952 370.9 23.952C368.692 23.952 367.204 24.416 366.436 25.344C365.668 26.272 365.284 27.776 365.284 29.856H364.372L363.844 25.248H365.14C365.364 23.904 365.796 22.656 366.436 21.504C367.076 20.32 368.02 19.36 369.268 18.624C370.516 17.856 372.148 17.472 374.164 17.472C376.244 17.472 377.94 17.904 379.252 18.768C380.596 19.632 381.588 20.784 382.228 22.224C382.868 23.664 383.188 25.264 383.188 27.024H383.62V42ZM425.838 42.48C423.118 42.48 420.734 41.968 418.686 40.944C416.638 39.92 415.054 38.48 413.934 36.624C412.846 34.736 412.302 32.528 412.302 30C412.302 27.44 412.846 25.232 413.934 23.376C415.054 21.488 416.638 20.032 418.686 19.008C420.734 17.984 423.118 17.472 425.838 17.472C428.43 17.472 430.702 17.904 432.654 18.768C434.606 19.632 436.126 20.848 437.214 22.416C438.302 23.952 438.846 25.76 438.846 27.84V28.512H431.694V28.128C431.694 26.592 431.166 25.52 430.11 24.912C429.054 24.272 427.582 23.952 425.694 23.952C423.55 23.952 421.966 24.4 420.942 25.296C419.95 26.192 419.454 27.76 419.454 30C419.454 32.176 419.95 33.728 420.942 34.656C421.966 35.552 423.55 36 425.694 36C427.582 36 429.054 35.696 430.11 35.088C431.166 34.448 431.694 33.36 431.694 31.824V31.44H438.846V32.112C438.846 34.192 438.302 36.016 437.214 37.584C436.126 39.12 434.606 40.32 432.654 41.184C430.702 42.048 428.43 42.48 425.838 42.48ZM454.759 42.48C452.039 42.48 449.639 41.968 447.559 40.944C445.511 39.92 443.911 38.48 442.759 36.624C441.607 34.736 441.031 32.528 441.031 30C441.031 27.44 441.607 25.232 442.759 23.376C443.911 21.488 445.511 20.032 447.559 19.008C449.639 17.984 452.039 17.472 454.759 17.472C457.511 17.472 459.911 17.984 461.959 19.008C464.007 20.032 465.607 21.488 466.759 23.376C467.911 25.232 468.487 27.44 468.487 30C468.487 32.528 467.911 34.736 466.759 36.624C465.607 38.48 464.007 39.92 461.959 40.944C459.911 41.968 457.511 42.48 454.759 42.48ZM454.759 36.096C457.191 36.096 458.887 35.616 459.847 34.656C460.839 33.664 461.335 32.112 461.335 30C461.335 27.856 460.839 26.288 459.847 25.296C458.887 24.304 457.191 23.808 454.759 23.808C452.327 23.808 450.615 24.304 449.623 25.296C448.663 26.288 448.183 27.856 448.183 30C448.183 32.112 448.663 33.664 449.623 34.656C450.615 35.616 452.327 36.096 454.759 36.096ZM515.3 42H508.1V29.424C508.1 27.44 507.7 26.032 506.9 25.2C506.1 24.368 504.66 23.952 502.58 23.952C500.404 23.952 498.916 24.416 498.116 25.344C497.348 26.272 496.964 27.776 496.964 29.856H496.052L495.476 25.344H496.868C497.06 23.968 497.476 22.688 498.116 21.504C498.788 20.32 499.764 19.36 501.044 18.624C502.356 17.856 504.036 17.472 506.084 17.472C508.164 17.472 509.876 17.888 511.22 18.72C512.596 19.552 513.62 20.688 514.292 22.128C514.964 23.568 515.3 25.2 515.3 27.024V42ZM478.628 42H471.428V17.952H478.1V25.44L478.628 25.68V42ZM496.964 42H489.764V29.424C489.764 27.44 489.364 26.032 488.564 25.2C487.764 24.368 486.324 23.952 484.244 23.952C482.036 23.952 480.548 24.416 479.78 25.344C479.012 26.272 478.628 27.776 478.628 29.856H477.716L477.188 25.248H478.484C478.708 23.904 479.14 22.656 479.78 21.504C480.42 20.32 481.364 19.36 482.612 18.624C483.86 17.856 485.492 17.472 487.508 17.472C489.588 17.472 491.284 17.904 492.596 18.768C493.94 19.632 494.932 20.784 495.572 22.224C496.212 23.664 496.532 25.264 496.532 27.024H496.964V42ZM535.951 42.48C533.167 42.48 530.991 41.856 529.423 40.608C527.887 39.328 526.911 37.632 526.495 35.52H525.247V30.336H526.159C526.159 31.68 526.431 32.768 526.975 33.6C527.519 34.432 528.303 35.024 529.327 35.376C530.383 35.728 531.663 35.904 533.167 35.904C534.735 35.904 536.015 35.712 537.007 35.328C537.999 34.944 538.735 34.32 539.215 33.456C539.695 32.592 539.935 31.44 539.935 30C539.935 28.496 539.695 27.328 539.215 26.496C538.735 25.632 537.999 25.024 537.007 24.672C536.015 24.288 534.751 24.096 533.215 24.096C530.879 24.096 529.119 24.544 527.935 25.44C526.751 26.304 526.159 27.808 526.159 29.952H525.247L524.719 24.528H526.111C526.527 22.224 527.519 20.48 529.087 19.296C530.687 18.08 532.895 17.472 535.711 17.472C538.175 17.472 540.255 17.984 541.951 19.008C543.679 20.032 544.991 21.488 545.887 23.376C546.783 25.232 547.231 27.44 547.231 30C547.231 32.528 546.783 34.736 545.887 36.624C545.023 38.48 543.743 39.92 542.047 40.944C540.383 41.968 538.351 42.48 535.951 42.48ZM526.159 50.16H518.959V17.952H525.631V25.104L526.159 25.728V50.16ZM574.513 42H567.793V36.288L567.409 36.192V27.792C567.409 26.224 567.009 25.168 566.209 24.624C565.441 24.08 564.097 23.808 562.177 23.808C560.353 23.808 559.041 24.08 558.241 24.624C557.441 25.168 557.041 26.128 557.041 27.504V27.696H549.793V27.552C549.793 25.568 550.321 23.824 551.377 22.32C552.433 20.784 553.921 19.6 555.841 18.768C557.793 17.904 560.081 17.472 562.705 17.472C565.393 17.472 567.601 17.904 569.329 18.768C571.089 19.632 572.385 20.848 573.217 22.416C574.081 23.952 574.513 25.776 574.513 27.888V42ZM557.617 42.48C555.025 42.48 552.993 41.904 551.521 40.752C550.049 39.6 549.313 38.032 549.313 36.048C549.313 34.832 549.601 33.792 550.177 32.928C550.753 32.064 551.617 31.376 552.769 30.864C553.921 30.32 555.361 29.952 557.089 29.76L567.889 28.656V32.784L559.057 33.792C558.193 33.856 557.553 34.032 557.137 34.32C556.753 34.576 556.561 34.992 556.561 35.568C556.561 36.208 556.817 36.672 557.329 36.96C557.841 37.248 558.625 37.392 559.681 37.392C561.409 37.392 562.833 37.232 563.953 36.912C565.073 36.592 565.921 36.08 566.497 35.376C567.105 34.64 567.409 33.664 567.409 32.448L568.081 32.4V36.48H567.409C566.865 38.336 565.761 39.808 564.097 40.896C562.465 41.952 560.305 42.48 557.617 42.48ZM604.754 42H597.554V29.424C597.554 27.472 597.106 26.08 596.21 25.248C595.314 24.384 593.762 23.952 591.554 23.952C589.25 23.952 587.634 24.432 586.706 25.392C585.81 26.32 585.362 27.808 585.362 29.856H584.45L583.922 25.344H585.266C585.49 24 585.97 22.736 586.706 21.552C587.442 20.336 588.482 19.36 589.826 18.624C591.202 17.856 592.946 17.472 595.058 17.472C597.234 17.472 599.042 17.904 600.482 18.768C601.922 19.6 602.994 20.736 603.698 22.176C604.402 23.616 604.754 25.232 604.754 27.024V42ZM585.362 42H578.162V17.952H584.834V25.44L585.362 25.68V42ZM615.597 42H608.397V17.952H615.597V42ZM615.597 15.504H608.397V9.84H615.597V15.504ZM632.133 42.48C629.477 42.48 627.125 42.032 625.077 41.136C623.029 40.24 621.445 38.864 620.325 37.008C619.205 35.152 618.645 32.816 618.645 30C618.645 27.44 619.205 25.232 620.325 23.376C621.445 21.488 622.997 20.032 624.981 19.008C626.997 17.984 629.333 17.472 631.989 17.472C634.613 17.472 636.901 17.92 638.853 18.816C640.837 19.712 642.373 21.04 643.461 22.8C644.549 24.528 645.093 26.64 645.093 29.136C645.093 29.552 645.077 29.936 645.045 30.288C645.013 30.64 644.965 31.024 644.901 31.44H623.301V27.648H639.813L638.181 30C638.181 29.68 638.181 29.376 638.181 29.088C638.181 28.8 638.181 28.512 638.181 28.224C638.181 26.4 637.685 25.088 636.693 24.288C635.701 23.488 634.085 23.088 631.845 23.088C629.413 23.088 627.717 23.568 626.757 24.528C625.797 25.456 625.317 26.944 625.317 28.992V30.816C625.317 32.864 625.797 34.368 626.757 35.328C627.717 36.256 629.429 36.72 631.893 36.72C634.005 36.72 635.493 36.448 636.357 35.904C637.221 35.36 637.653 34.576 637.653 33.552V33.072H644.853V33.6C644.853 35.328 644.325 36.864 643.269 38.208C642.213 39.552 640.725 40.608 638.805 41.376C636.917 42.112 634.693 42.48 632.133 42.48ZM660.291 42.48C656.259 42.48 653.155 41.728 650.979 40.224C648.803 38.688 647.715 36.528 647.715 33.744V33.6H654.915V34.032C654.915 35.12 655.299 35.856 656.067 36.24C656.867 36.592 658.291 36.768 660.339 36.768C662.259 36.768 663.523 36.608 664.131 36.288C664.771 35.936 665.091 35.408 665.091 34.704C665.091 34.032 664.851 33.568 664.371 33.312C663.891 33.024 662.947 32.784 661.539 32.592L654.771 31.776C652.371 31.52 650.515 30.848 649.203 29.76C647.923 28.672 647.283 27.104 647.283 25.056C647.283 23.648 647.699 22.384 648.531 21.264C649.363 20.112 650.643 19.2 652.371 18.528C654.131 17.824 656.387 17.472 659.139 17.472C661.763 17.472 663.987 17.808 665.811 18.48C667.667 19.12 669.075 20.096 670.035 21.408C670.995 22.72 671.475 24.352 671.475 26.304V26.448H664.275V26.16C664.275 25.488 664.131 24.944 663.843 24.528C663.587 24.08 663.059 23.744 662.259 23.52C661.491 23.296 660.371 23.184 658.899 23.184C657.107 23.184 655.907 23.36 655.299 23.712C654.691 24.032 654.387 24.576 654.387 25.344C654.387 25.952 654.627 26.416 655.107 26.736C655.619 27.024 656.659 27.28 658.227 27.504L663.363 28.128C666.563 28.48 668.835 29.216 670.179 30.336C671.523 31.456 672.195 33.008 672.195 34.992C672.195 36.496 671.715 37.808 670.755 38.928C669.795 40.048 668.435 40.928 666.675 41.568C664.915 42.176 662.787 42.48 660.291 42.48Z" fill="#26A4FF"/>
<path d="M251.69 58.8383C255.065 58.8383 258.6 58.7787 261.975 58.7192C263.421 58.7192 264.706 58.6596 266.152 58.6596C272.259 58.5404 278.365 58.4213 284.471 58.3021C291.863 58.183 299.094 58.0043 306.486 57.8851C316.93 57.6468 327.375 57.4681 337.82 57.2298C340.23 57.1702 342.641 57.1702 345.051 57.1106C351.157 56.9915 357.263 56.8723 363.37 56.8128C369.476 56.6936 375.582 56.5745 381.688 56.5149C384.098 56.4553 386.509 56.3958 388.919 56.3958C398.561 56.2766 408.363 56.1574 418.004 56.0383C423.949 55.9787 429.895 55.9192 436.001 55.8C438.411 55.8 440.661 55.7404 443.071 55.7404C452.391 55.6809 461.872 55.6213 471.192 55.5617C480.512 55.5021 489.671 55.4426 498.991 55.383C501.402 55.383 503.812 55.383 506.383 55.383C512.489 55.383 518.435 55.383 524.541 55.383C534.022 55.383 543.342 55.383 552.822 55.3234C555.875 55.3234 558.928 55.3234 561.982 55.3234C568.409 55.3234 574.837 55.3234 581.264 55.3234C581.746 55.3234 582.389 55.3234 582.871 55.3234C568.409 55.383 553.786 55.4426 539.324 55.5617C533.218 55.6213 527.273 55.6213 521.166 55.6809C518.595 55.6809 515.864 55.6809 513.293 55.7404C504.455 55.8 495.778 55.9192 486.94 55.9787C476.816 56.0979 466.693 56.1575 456.569 56.2766C454.802 56.2766 453.195 56.3362 451.427 56.3362C445.964 56.4553 440.661 56.5149 435.198 56.634C424.271 56.8128 413.344 56.9915 402.417 57.1702C400.81 57.1702 399.203 57.2298 397.596 57.2894C392.294 57.4085 386.83 57.5872 381.527 57.7064C371.886 57.9447 362.405 58.183 352.764 58.4213C350.193 58.4809 347.461 58.6 344.89 58.6596C338.784 58.8383 332.678 59.017 326.572 59.2553C318.859 59.4936 310.985 59.7319 303.272 59.9702C292.506 60.3277 281.579 60.6851 270.812 61.0426C268.241 61.1021 265.67 61.2213 262.939 61.2809C258.279 61.4596 253.619 61.6383 248.959 61.817C248.477 61.817 247.995 61.9362 247.995 62.1745C247.995 62.3532 248.477 62.5319 248.959 62.5319C250.726 62.5319 252.333 62.5915 254.101 62.5915C253.94 62.7702 253.779 62.949 253.779 63.1277C253.779 63.783 255.226 64.3787 257.154 64.3787C270.491 64.0809 283.668 63.7234 297.005 63.4851C308.574 63.3064 320.144 63.0681 331.714 62.8894C344.408 62.6511 357.263 62.4128 369.958 62.2341C373.975 62.1745 377.992 62.1149 382.01 61.9958C383.134 61.9958 384.259 61.9362 385.545 61.9362C406.113 61.7575 426.681 61.5192 447.249 61.3404C458.176 61.2213 469.264 61.1021 480.191 61.0426C484.208 60.983 488.064 60.983 492.082 60.9234C513.132 60.8043 534.182 60.6851 555.233 60.566C564.231 60.5064 573.23 60.4468 582.228 60.3872C589.942 60.3277 597.655 60.3277 605.368 60.2085C611.795 60.1489 618.062 60.0298 624.49 59.9702C627.704 59.9106 630.917 59.9106 633.97 59.8511C641.201 59.6723 648.432 59.4936 655.663 59.3149C655.181 59.5532 655.181 59.9106 655.342 60.1489C655.503 60.4468 655.985 60.6851 656.788 60.8043C657.431 60.9234 658.395 61.0426 659.038 60.9234C660.645 60.6851 662.252 60.4468 663.698 60.2085C663.698 60.2085 663.698 60.2085 663.537 60.2085C663.698 60.2085 663.698 60.1489 663.859 60.1489C664.019 60.1489 664.18 60.0894 664.18 60.0894H664.019C664.823 59.9702 665.626 59.8511 666.59 59.6724C667.394 59.5532 668.358 59.3745 669.161 59.2553C670.126 59.0766 670.929 58.8979 671.893 58.7192C672.857 58.5404 673.5 58.0638 673.5 57.6468C673.5 57.4085 673.339 57.2298 673.018 56.9915C672.697 56.7532 671.893 56.4553 671.09 56.3958C670.286 56.3362 669.483 56.2766 668.679 56.2766C668.519 56.2766 668.358 56.2766 668.197 56.2766C667.715 56.2766 667.072 56.2766 666.59 56.3362C665.305 56.3957 664.18 56.4553 662.895 56.4553C661.93 56.4553 660.966 56.5149 659.841 56.5149C657.11 56.5745 654.539 56.634 651.807 56.7532C651.164 56.7532 650.361 56.8128 649.718 56.8128C650.039 56.6936 650.2 56.5745 650.2 56.4553C650.361 56.3362 650.361 56.217 650.361 56.0979C650.361 56.0383 650.361 55.9192 650.521 55.8596C650.521 55.7404 650.521 55.6213 650.361 55.5617C650.361 55.5617 650.521 55.5617 650.521 55.5021C651.003 55.383 651.486 55.2638 651.807 55.0255C652.128 54.8468 652.289 54.6085 652.289 54.3702C652.289 54.1319 652.128 53.9532 651.807 53.7149C651.646 53.6553 651.486 53.5362 651.325 53.4766C650.843 53.2979 650.361 53.2383 649.879 53.1787C648.914 53.0596 647.79 53 646.665 53C645.701 53 644.897 53 643.933 53C642.648 53 641.362 53 640.077 53C638.309 53 636.381 53 634.613 53C629.792 53 624.972 53 620.151 53C615.652 53 610.992 53 606.493 53C602.315 53 598.297 53 594.119 53C577.568 53 561.178 53.0596 544.627 53.1192C532.254 53.1787 519.881 53.2383 507.508 53.2383C502.044 53.2383 496.42 53.2979 490.957 53.3574C478.584 53.4766 466.211 53.5362 453.838 53.6553C450.302 53.6553 446.767 53.7149 443.232 53.7149C441.143 53.7149 439.215 53.7745 437.126 53.7745C424.914 53.9532 412.701 54.1319 400.489 54.3106C396.793 54.3702 393.097 54.4298 389.241 54.4894C387.152 54.4894 385.063 54.5489 382.974 54.6085C370.761 54.8468 358.71 55.0851 346.497 55.3234C340.23 55.4426 333.963 55.5617 327.697 55.7404C316.93 55.9787 306.164 56.217 295.559 56.5149C286.239 56.7532 276.919 56.9319 267.599 57.1106C266.152 57.1702 264.706 57.1702 263.099 57.2298C260.689 57.2894 258.279 57.2894 255.868 57.3489C253.779 57.4085 251.69 57.4085 249.441 57.4085C249.28 57.2298 248.637 57.0511 248.155 57.0511C246.709 57.1106 245.424 57.1702 243.977 57.2298C243.335 57.2298 242.692 57.3489 242.531 57.6468C242.37 57.9447 242.853 58.2426 243.495 58.3021C244.138 58.3617 244.62 58.4213 245.263 58.4809C245.906 58.5404 246.388 58.5404 247.03 58.5404C248.637 58.7787 250.084 58.7787 251.69 58.8383ZM627.704 56.8723C629.632 56.8723 631.721 56.8723 633.649 56.8723C633.81 57.0511 634.131 57.1702 634.452 57.2894C633.649 57.2894 632.846 57.3489 632.203 57.3489C630.757 57.3489 629.31 57.4085 627.864 57.4085C621.437 57.4681 615.17 57.5872 608.742 57.6468C605.85 57.7064 602.957 57.766 600.065 57.766C595.566 57.766 590.906 57.8255 586.406 57.8255C575.962 57.8851 565.677 57.9447 555.233 58.0043C534.986 58.1234 514.9 58.2426 494.653 58.3617C480.191 58.4213 465.729 58.6 451.267 58.7787C429.574 59.017 407.72 59.1958 386.027 59.4341C381.688 59.4936 377.35 59.5532 373.011 59.6724C360.638 59.9106 348.265 60.0894 335.892 60.3277C323.84 60.566 311.628 60.7447 299.576 60.983C298.451 60.983 297.326 61.0426 296.201 61.0426C299.415 60.9234 302.79 60.8638 306.003 60.7447C317.412 60.4468 328.821 60.0894 340.23 59.7915C344.247 59.6723 348.265 59.5532 352.121 59.4341C354.21 59.3745 356.299 59.3149 358.227 59.3149C370.118 59.0766 382.01 58.7787 393.901 58.5404C396.15 58.4809 398.561 58.4213 400.81 58.3617C404.185 58.3021 407.559 58.2426 410.773 58.2426C422.985 58.0638 435.198 57.8851 447.41 57.7064C450.142 57.6468 452.874 57.6468 455.445 57.5872C456.087 57.5872 456.891 57.5872 457.533 57.5872C459.462 57.5872 461.39 57.5872 463.158 57.5277C475.37 57.4085 487.743 57.3489 499.955 57.2298C505.58 57.1702 511.204 57.1106 516.828 57.1106C534.986 57.0511 553.304 56.9915 571.462 56.9319C590.584 56.9319 609.224 56.9319 627.704 56.8723Z" fill="#26A4FF"/>
<path d="M275.953 67C276.486 67 276.918 66.84 276.918 66.6426C276.918 66.4452 276.486 66.2852 275.953 66.2852C275.421 66.2852 274.989 66.4452 274.989 66.6426C274.989 66.84 275.421 67 275.953 67Z" fill="#26A4FF"/>
</svg>
