<svg width="48" height="48" viewBox="0 0 48 48" fill="none" xmlns="http://www.w3.org/2000/svg">
<g clip-path="url(#clip0_383_22525)">
<path d="M24 42C33.9411 42 42 33.9411 42 24C42 14.0589 33.9411 6 24 6C14.0589 6 6 14.0589 6 24C6 33.9411 14.0589 42 24 42Z" stroke="#4640DE" stroke-width="3" stroke-linecap="round" stroke-linejoin="round"/>
<path d="M7.2002 18H40.8002" stroke="#4640DE" stroke-width="3" stroke-linecap="round" stroke-linejoin="round"/>
<path d="M7.2002 30H40.8002" stroke="#4640DE" stroke-width="3" stroke-linecap="round" stroke-linejoin="round"/>
<path d="M23.0003 6C19.631 11.3992 17.8447 17.6357 17.8447 24C17.8447 30.3643 19.631 36.6008 23.0003 42" stroke="#4640DE" stroke-width="3" stroke-linecap="round" stroke-linejoin="round"/>
<path d="M25 6C28.3693 11.3992 30.1556 17.6357 30.1556 24C30.1556 30.3643 28.3693 36.6008 25 42" stroke="#4640DE" stroke-width="3" stroke-linecap="round" stroke-linejoin="round"/>
</g>
<defs>
<clipPath id="clip0_383_22525">
<rect width="48" height="48" fill="white"/>
</clipPath>
</defs>
</svg>
