<svg width="304" height="192" viewBox="0 0 304 192" fill="none" xmlns="http://www.w3.org/2000/svg">
<circle cx="76" cy="94.0001" r="64.3765" stroke="#E9EBFD" stroke-width="14.3059"/>
<g filter="url(#filter0_d_352_22794)">
<mask id="path-2-inside-1_352_22794" fill="white">
<path d="M76 18C92.0496 18 107.687 23.081 120.672 32.5147C133.656 41.9484 143.321 55.2506 148.28 70.5147C153.24 85.7788 153.24 102.221 148.28 117.485C143.321 132.749 133.656 146.052 120.672 155.485L107.27 137.04C116.359 130.436 123.124 121.125 126.596 110.44C130.068 99.7548 130.068 88.2452 126.596 77.5603C123.124 66.8754 116.359 57.5639 107.27 50.9603C98.1811 44.3567 87.2347 40.8 76 40.8V18Z"/>
</mask>
<path d="M76 18C92.0496 18 107.687 23.081 120.672 32.5147C133.656 41.9484 143.321 55.2506 148.28 70.5147C153.24 85.7788 153.24 102.221 148.28 117.485C143.321 132.749 133.656 146.052 120.672 155.485L107.27 137.04C116.359 130.436 123.124 121.125 126.596 110.44C130.068 99.7548 130.068 88.2452 126.596 77.5603C123.124 66.8754 116.359 57.5639 107.27 50.9603C98.1811 44.3567 87.2347 40.8 76 40.8V18Z" stroke="#4640DE" stroke-width="42.9176" shape-rendering="crispEdges" mask="url(#path-2-inside-1_352_22794)"/>
</g>
<rect x="176" y="53" width="20" height="20" rx="4" fill="#4640DE"/>
<path d="M217.58 55.216C216.518 55.216 215.651 54.961 214.979 54.451C214.307 53.935 213.812 53.203 213.494 52.255C213.182 51.307 213.026 50.185 213.026 48.889C213.026 47.707 213.128 46.66 213.332 45.748C213.536 44.83 213.836 44.059 214.232 43.435C214.634 42.811 215.126 42.337 215.708 42.013C216.29 41.689 216.959 41.527 217.715 41.527C218.525 41.527 219.188 41.665 219.704 41.941C220.226 42.211 220.631 42.553 220.919 42.967C221.213 43.375 221.417 43.792 221.531 44.218C221.651 44.638 221.711 44.995 221.711 45.289C221.711 45.307 221.711 45.319 221.711 45.325C221.711 45.331 221.711 45.34 221.711 45.352H219.11C219.11 45.34 219.11 45.331 219.11 45.325C219.11 45.319 219.11 45.307 219.11 45.289C219.11 45.139 219.089 44.974 219.047 44.794C219.011 44.608 218.942 44.431 218.84 44.263C218.744 44.095 218.603 43.957 218.417 43.849C218.231 43.741 217.994 43.687 217.706 43.687C217.28 43.687 216.923 43.876 216.635 44.254C216.347 44.626 216.131 45.196 215.987 45.964C215.843 46.726 215.771 47.701 215.771 48.889L215.258 48.898C215.276 48.514 215.408 48.148 215.654 47.8C215.9 47.446 216.254 47.158 216.716 46.936C217.184 46.708 217.751 46.594 218.417 46.594C219.239 46.594 219.926 46.78 220.478 47.152C221.036 47.518 221.453 48.007 221.729 48.619C222.005 49.231 222.143 49.906 222.143 50.644C222.143 51.52 221.972 52.303 221.63 52.993C221.294 53.683 220.787 54.226 220.109 54.622C219.431 55.018 218.588 55.216 217.58 55.216ZM217.616 53.047C218 53.047 218.318 52.963 218.57 52.795C218.822 52.627 219.011 52.378 219.137 52.048C219.269 51.718 219.335 51.313 219.335 50.833C219.335 50.365 219.269 49.966 219.137 49.636C219.011 49.3 218.828 49.042 218.588 48.862C218.348 48.682 218.057 48.592 217.715 48.592C217.361 48.592 217.049 48.676 216.779 48.844C216.509 49.012 216.296 49.255 216.14 49.573C215.99 49.885 215.915 50.269 215.915 50.725C215.915 51.181 215.984 51.583 216.122 51.931C216.266 52.279 216.464 52.552 216.716 52.75C216.974 52.948 217.274 53.047 217.616 53.047ZM228.604 55.216C227.758 55.216 227.038 55.033 226.444 54.667C225.856 54.301 225.376 53.803 225.004 53.173C224.638 52.537 224.371 51.808 224.203 50.986C224.035 50.164 223.951 49.3 223.951 48.394C223.951 47.488 224.035 46.624 224.203 45.802C224.371 44.974 224.638 44.239 225.004 43.597C225.376 42.955 225.856 42.451 226.444 42.085C227.038 41.713 227.758 41.527 228.604 41.527C229.45 41.527 230.167 41.713 230.755 42.085C231.349 42.451 231.829 42.955 232.195 43.597C232.567 44.239 232.837 44.974 233.005 45.802C233.173 46.624 233.257 47.488 233.257 48.394C233.257 49.3 233.173 50.164 233.005 50.986C232.837 51.808 232.567 52.537 232.195 53.173C231.829 53.803 231.349 54.301 230.755 54.667C230.167 55.033 229.45 55.216 228.604 55.216ZM228.604 53.047C229.006 53.047 229.342 52.894 229.612 52.588C229.888 52.276 230.095 51.778 230.233 51.094C230.371 50.41 230.44 49.51 230.44 48.394C230.44 47.272 230.371 46.372 230.233 45.694C230.095 45.01 229.888 44.512 229.612 44.2C229.342 43.888 229.006 43.732 228.604 43.732C228.208 43.732 227.872 43.888 227.596 44.2C227.32 44.512 227.113 45.01 226.975 45.694C226.837 46.372 226.768 47.272 226.768 48.394C226.768 49.516 226.837 50.419 226.975 51.103C227.113 51.781 227.32 52.276 227.596 52.588C227.872 52.894 228.208 53.047 228.604 53.047ZM245.347 42.706L235.393 54.667L234.412 53.839L244.375 41.878L245.347 42.706ZM237.049 46.351C236.605 46.351 236.188 46.261 235.798 46.081C235.414 45.895 235.102 45.628 234.862 45.28C234.628 44.932 234.511 44.521 234.511 44.047C234.511 43.561 234.628 43.147 234.862 42.805C235.102 42.457 235.414 42.19 235.798 42.004C236.188 41.812 236.605 41.716 237.049 41.716C237.499 41.716 237.919 41.812 238.309 42.004C238.705 42.19 239.023 42.457 239.263 42.805C239.509 43.147 239.632 43.561 239.632 44.047C239.632 44.521 239.509 44.932 239.263 45.28C239.023 45.628 238.705 45.895 238.309 46.081C237.919 46.261 237.499 46.351 237.049 46.351ZM237.049 45.217C237.259 45.217 237.463 45.178 237.661 45.1C237.865 45.016 238.03 44.887 238.156 44.713C238.288 44.539 238.354 44.317 238.354 44.047C238.354 43.765 238.288 43.537 238.156 43.363C238.03 43.189 237.865 43.063 237.661 42.985C237.463 42.901 237.259 42.859 237.049 42.859C236.839 42.859 236.635 42.901 236.437 42.985C236.245 43.063 236.086 43.189 235.96 43.363C235.84 43.537 235.78 43.765 235.78 44.047C235.78 44.317 235.84 44.539 235.96 44.713C236.086 44.887 236.245 45.016 236.437 45.1C236.635 45.178 236.839 45.217 237.049 45.217ZM242.539 54.919C242.095 54.919 241.678 54.829 241.288 54.649C240.904 54.463 240.592 54.196 240.352 53.848C240.118 53.5 240.001 53.089 240.001 52.615C240.001 52.129 240.118 51.715 240.352 51.373C240.592 51.025 240.904 50.758 241.288 50.572C241.678 50.386 242.095 50.293 242.539 50.293C242.989 50.293 243.412 50.386 243.808 50.572C244.204 50.758 244.522 51.025 244.762 51.373C245.008 51.715 245.131 52.129 245.131 52.615C245.131 53.089 245.008 53.5 244.762 53.848C244.522 54.196 244.204 54.463 243.808 54.649C243.412 54.829 242.989 54.919 242.539 54.919ZM242.539 53.785C242.755 53.785 242.962 53.746 243.16 53.668C243.358 53.584 243.52 53.455 243.646 53.281C243.778 53.107 243.844 52.885 243.844 52.615C243.844 52.339 243.778 52.114 243.646 51.94C243.52 51.766 243.358 51.637 243.16 51.553C242.962 51.469 242.755 51.427 242.539 51.427C242.329 51.427 242.128 51.469 241.936 51.553C241.744 51.637 241.585 51.766 241.459 51.94C241.339 52.114 241.279 52.339 241.279 52.615C241.279 52.885 241.339 53.107 241.459 53.281C241.585 53.455 241.744 53.584 241.936 53.668C242.128 53.746 242.329 53.785 242.539 53.785Z" fill="#25324B"/>
<path d="M221.232 76.648C221.232 78.1787 220.875 79.3147 220.16 80.056C219.445 80.792 218.451 81.16 217.176 81.16C215.907 81.16 214.915 80.792 214.2 80.056C213.485 79.3147 213.128 78.1787 213.128 76.648C213.128 76.4133 213.128 76.1653 213.128 75.904C213.128 75.6373 213.128 75.3573 213.128 75.064V69.2H214.496V75.184C214.496 75.4613 214.496 75.72 214.496 75.96C214.496 76.2 214.496 76.4213 214.496 76.624C214.496 77.808 214.723 78.656 215.176 79.168C215.629 79.6747 216.296 79.928 217.176 79.928C218.061 79.928 218.731 79.6747 219.184 79.168C219.643 78.656 219.872 77.808 219.872 76.624V69.2H221.232V76.648ZM229.663 81V76.928C229.663 76.6827 229.663 76.4827 229.663 76.328C229.663 76.168 229.663 76.016 229.663 75.872C229.663 75.4293 229.589 75.0427 229.439 74.712C229.29 74.3813 229.055 74.1253 228.735 73.944C228.415 73.7627 227.997 73.672 227.479 73.672C227.026 73.672 226.605 73.7893 226.215 74.024C225.831 74.2533 225.522 74.5653 225.287 74.96C225.058 75.3493 224.943 75.7867 224.943 76.272L224.167 75.976C224.167 75.3093 224.33 74.704 224.655 74.16C224.986 73.616 225.423 73.184 225.967 72.864C226.517 72.5387 227.114 72.376 227.759 72.376C228.415 72.376 228.989 72.5013 229.479 72.752C229.97 73.0027 230.349 73.3627 230.615 73.832C230.887 74.296 231.023 74.856 231.023 75.512C231.023 75.7467 231.023 76.0027 231.023 76.28C231.023 76.5573 231.023 76.816 231.023 77.056V81H229.663ZM223.583 81V72.504H224.943V81H223.583ZM236.644 81.16C236.132 81.16 235.657 81.1067 235.22 81C234.788 80.888 234.409 80.728 234.084 80.52C233.764 80.3067 233.513 80.0453 233.332 79.736C233.156 79.4267 233.068 79.072 233.068 78.672C233.068 78.6293 233.068 78.5867 233.068 78.544C233.068 78.496 233.068 78.456 233.068 78.424H234.436C234.436 78.456 234.436 78.4827 234.436 78.504C234.436 78.5253 234.436 78.5573 234.436 78.6C234.436 79.032 234.636 79.3627 235.036 79.592C235.436 79.816 235.983 79.928 236.676 79.928C237.103 79.928 237.484 79.8853 237.82 79.8C238.156 79.7147 238.42 79.584 238.612 79.408C238.809 79.232 238.908 79.0107 238.908 78.744C238.908 78.3013 238.7 77.9867 238.284 77.8C237.873 77.608 237.257 77.4427 236.436 77.304C236.004 77.2293 235.593 77.1333 235.204 77.016C234.815 76.8933 234.468 76.736 234.164 76.544C233.865 76.352 233.628 76.1147 233.452 75.832C233.281 75.544 233.196 75.2 233.196 74.8C233.196 74.2827 233.348 73.8453 233.652 73.488C233.961 73.1253 234.377 72.8507 234.9 72.664C235.423 72.472 236.004 72.376 236.644 72.376C237.263 72.376 237.833 72.4747 238.356 72.672C238.879 72.8693 239.297 73.1573 239.612 73.536C239.932 73.9093 240.092 74.3707 240.092 74.92C240.092 74.9413 240.092 74.968 240.092 75C240.092 75.0267 240.092 75.0533 240.092 75.08H238.732C238.732 75.0533 238.732 75.032 238.732 75.016C238.732 75 238.732 74.9813 238.732 74.96C238.732 74.6507 238.633 74.3973 238.436 74.2C238.239 73.9973 237.983 73.848 237.668 73.752C237.353 73.6507 237.017 73.6 236.66 73.6C236.324 73.6 235.993 73.6373 235.668 73.712C235.343 73.7813 235.073 73.8987 234.86 74.064C234.647 74.2293 234.54 74.456 234.54 74.744C234.54 75.032 234.639 75.264 234.836 75.44C235.039 75.6107 235.321 75.752 235.684 75.864C236.052 75.9707 236.484 76.0693 236.98 76.16C237.423 76.24 237.841 76.3413 238.236 76.464C238.631 76.5813 238.977 76.7333 239.276 76.92C239.58 77.1067 239.817 77.344 239.988 77.632C240.164 77.9147 240.252 78.2613 240.252 78.672C240.252 79.088 240.156 79.4507 239.964 79.76C239.777 80.0693 239.516 80.328 239.18 80.536C238.849 80.744 238.465 80.8987 238.028 81C237.596 81.1067 237.135 81.16 236.644 81.16ZM245.501 81.152C244.893 81.152 244.386 81.048 243.981 80.84C243.575 80.6267 243.253 80.352 243.013 80.016C242.778 79.68 242.61 79.3173 242.509 78.928C242.413 78.5333 242.365 78.1547 242.365 77.792C242.365 77.5893 242.365 77.3813 242.365 77.168C242.365 76.9493 242.365 76.7307 242.365 76.512V72.504H243.733V76.336C243.733 76.5333 243.733 76.728 243.733 76.92C243.733 77.112 243.733 77.2933 243.733 77.464C243.733 77.896 243.791 78.296 243.909 78.664C244.031 79.032 244.242 79.3307 244.541 79.56C244.839 79.784 245.25 79.896 245.773 79.896C246.263 79.896 246.693 79.7493 247.061 79.456C247.429 79.1573 247.717 78.7867 247.925 78.344C248.133 77.896 248.237 77.4507 248.237 77.008L249.029 77.336C249.029 77.8053 248.946 78.2667 248.781 78.72C248.615 79.168 248.378 79.576 248.069 79.944C247.765 80.312 247.394 80.6053 246.957 80.824C246.525 81.0427 246.039 81.152 245.501 81.152ZM248.237 81V72.504H249.597V81H248.237ZM252.038 81V72.504H253.382V81H252.038ZM252.718 70.552C252.468 70.552 252.249 70.4827 252.062 70.344C251.881 70.2 251.79 70.0053 251.79 69.76C251.79 69.52 251.881 69.3307 252.062 69.192C252.249 69.048 252.468 68.976 252.718 68.976C252.969 68.976 253.185 69.048 253.366 69.192C253.548 69.3307 253.638 69.52 253.638 69.76C253.638 70.0053 253.548 70.2 253.366 70.344C253.185 70.4827 252.969 70.552 252.718 70.552ZM259.272 81.128C259.01 81.128 258.754 81.0987 258.504 81.04C258.253 80.9813 258.026 80.8773 257.824 80.728C257.626 80.5733 257.469 80.3573 257.352 80.08C257.234 79.7973 257.176 79.4347 257.176 78.992C257.176 78.88 257.176 78.7653 257.176 78.648C257.176 78.5253 257.176 78.3973 257.176 78.264V73.704H255.104V72.504H256.432C256.613 72.504 256.754 72.4987 256.856 72.488C256.957 72.472 257.029 72.4373 257.072 72.384C257.12 72.3253 257.149 72.2373 257.16 72.12C257.17 71.9973 257.176 71.8293 257.176 71.616V69.688H258.544V72.504H261.2V73.704H258.544V77.824C258.544 77.9413 258.544 78.056 258.544 78.168C258.544 78.28 258.544 78.384 258.544 78.48C258.544 78.9333 258.597 79.288 258.704 79.544C258.816 79.8 259.064 79.928 259.448 79.928C259.602 79.928 259.749 79.9147 259.888 79.888C260.026 79.8613 260.13 79.8347 260.2 79.808V80.992C260.109 81.024 259.981 81.0533 259.816 81.08C259.656 81.112 259.474 81.128 259.272 81.128ZM265.63 81.16C264.984 81.16 264.419 81.0587 263.934 80.856C263.454 80.6533 263.08 80.3627 262.814 79.984C262.547 79.6 262.414 79.1413 262.414 78.608C262.414 78.0533 262.558 77.592 262.846 77.224C263.134 76.8507 263.539 76.56 264.062 76.352C264.584 76.144 265.192 76.0053 265.886 75.936C266.931 75.8293 267.675 75.7253 268.118 75.624C268.56 75.5173 268.782 75.3467 268.782 75.112C268.782 75.1067 268.782 75.104 268.782 75.104C268.782 75.0987 268.782 75.0933 268.782 75.088C268.782 74.5973 268.582 74.232 268.182 73.992C267.782 73.7467 267.203 73.624 266.446 73.624C265.656 73.624 265.043 73.7627 264.606 74.04C264.168 74.312 263.95 74.7547 263.95 75.368H262.606C262.606 74.7333 262.768 74.1947 263.094 73.752C263.419 73.304 263.87 72.9627 264.446 72.728C265.027 72.4933 265.696 72.376 266.454 72.376C267.147 72.376 267.771 72.4827 268.326 72.696C268.886 72.904 269.328 73.216 269.654 73.632C269.984 74.0427 270.15 74.552 270.15 75.16C270.15 75.272 270.15 75.384 270.15 75.496C270.15 75.6027 270.15 75.712 270.15 75.824V79.4C270.15 79.5867 270.158 79.768 270.174 79.944C270.19 80.12 270.216 80.2747 270.253 80.408C270.302 80.568 270.355 80.6987 270.414 80.8C270.472 80.896 270.52 80.9627 270.558 81H269.19C269.163 80.9733 269.123 80.912 269.07 80.816C269.016 80.7147 268.966 80.5973 268.918 80.464C268.88 80.3573 268.851 80.224 268.83 80.064C268.808 79.8987 268.798 79.728 268.798 79.552L269.022 79.704C268.856 79.992 268.614 80.2453 268.294 80.464C267.979 80.6827 267.598 80.8533 267.15 80.976C266.702 81.0987 266.195 81.16 265.63 81.16ZM265.845 79.936C266.395 79.936 266.891 79.8533 267.334 79.688C267.776 79.5173 268.128 79.2667 268.39 78.936C268.651 78.6053 268.782 78.1947 268.782 77.704V76.016L269.086 76.528C268.744 76.6613 268.318 76.7707 267.806 76.856C267.299 76.936 266.768 77.0027 266.214 77.056C265.408 77.1307 264.8 77.272 264.39 77.48C263.984 77.688 263.782 78.0373 263.782 78.528C263.782 78.992 263.95 79.344 264.286 79.584C264.622 79.8187 265.142 79.936 265.845 79.936ZM276.564 81.16C275.908 81.16 275.294 81 274.724 80.68C274.153 80.3547 273.689 79.9093 273.332 79.344C272.98 78.7787 272.804 78.1333 272.804 77.408C272.804 77.392 272.804 77.3787 272.804 77.368C272.804 77.3573 272.804 77.344 272.804 77.328L273.78 77.304C273.78 77.3147 273.78 77.328 273.78 77.344C273.78 77.3547 273.78 77.3653 273.78 77.376C273.78 77.8347 273.9 78.2533 274.14 78.632C274.385 79.0107 274.705 79.312 275.1 79.536C275.494 79.76 275.918 79.872 276.372 79.872C277.124 79.872 277.748 79.616 278.244 79.104C278.745 78.5867 278.996 77.8 278.996 76.744C278.996 75.6827 278.748 74.8987 278.252 74.392C277.756 73.88 277.129 73.624 276.372 73.624C275.918 73.624 275.494 73.736 275.1 73.96C274.705 74.1787 274.385 74.4747 274.14 74.848C273.9 75.2213 273.78 75.64 273.78 76.104L272.804 76.072C272.804 75.3413 272.98 74.6987 273.332 74.144C273.689 73.5893 274.153 73.1573 274.724 72.848C275.294 72.5333 275.908 72.376 276.564 72.376C277.252 72.376 277.886 72.5467 278.468 72.888C279.049 73.224 279.516 73.7173 279.868 74.368C280.22 75.0187 280.396 75.8107 280.396 76.744C280.396 77.6933 280.222 78.4987 279.876 79.16C279.529 79.816 279.065 80.3147 278.484 80.656C277.902 80.992 277.262 81.16 276.564 81.16ZM272.412 81V68.496H273.78V81H272.412ZM283.985 68.496V81H282.641V68.496H283.985ZM286.914 77.296V76.08H293.482L293.242 76.48C293.242 76.448 293.242 76.4187 293.242 76.392C293.242 76.36 293.242 76.3307 293.242 76.304C293.242 75.8133 293.138 75.3653 292.93 74.96C292.727 74.5493 292.423 74.2213 292.018 73.976C291.613 73.7307 291.111 73.608 290.514 73.608C289.911 73.608 289.381 73.736 288.922 73.992C288.463 74.248 288.106 74.6107 287.85 75.08C287.594 75.544 287.466 76.0987 287.466 76.744C287.466 77.4 287.589 77.9653 287.834 78.44C288.085 78.9147 288.439 79.28 288.898 79.536C289.357 79.792 289.901 79.92 290.53 79.92C290.978 79.92 291.367 79.8747 291.698 79.784C292.029 79.688 292.301 79.5627 292.514 79.408C292.733 79.248 292.898 79.0747 293.01 78.888C293.122 78.7013 293.189 78.5147 293.21 78.328H294.57C294.543 78.6693 294.437 79.008 294.25 79.344C294.063 79.68 293.799 79.9867 293.458 80.264C293.117 80.536 292.698 80.7547 292.202 80.92C291.706 81.0853 291.135 81.168 290.49 81.168C289.637 81.168 288.885 80.9813 288.234 80.608C287.583 80.2347 287.071 79.7173 286.698 79.056C286.33 78.3947 286.146 77.6347 286.146 76.776C286.146 75.9067 286.333 75.144 286.706 74.488C287.079 73.8267 287.594 73.3093 288.25 72.936C288.906 72.5627 289.655 72.376 290.498 72.376C291.357 72.376 292.101 72.5627 292.73 72.936C293.359 73.3093 293.845 73.8213 294.186 74.472C294.527 75.1173 294.698 75.8533 294.698 76.68C294.698 76.7653 294.695 76.8773 294.69 77.016C294.685 77.1547 294.677 77.248 294.666 77.296H286.914Z" fill="#7C8493"/>
<rect x="176" y="115" width="20" height="20" rx="4" fill="#E9EBFD"/>
<path d="M217.949 117V114.453H212.333V112.518L217.067 103.707H220.676V112.347H222.26V114.453H220.676V117H217.949ZM214.43 113.544L213.683 112.347H217.949V105.489L218.516 105.642L214.43 113.544ZM228.199 117.216C227.353 117.216 226.633 117.033 226.039 116.667C225.451 116.301 224.971 115.803 224.599 115.173C224.233 114.537 223.966 113.808 223.798 112.986C223.63 112.164 223.546 111.3 223.546 110.394C223.546 109.488 223.63 108.624 223.798 107.802C223.966 106.974 224.233 106.239 224.599 105.597C224.971 104.955 225.451 104.451 226.039 104.085C226.633 103.713 227.353 103.527 228.199 103.527C229.045 103.527 229.762 103.713 230.35 104.085C230.944 104.451 231.424 104.955 231.79 105.597C232.162 106.239 232.432 106.974 232.6 107.802C232.768 108.624 232.852 109.488 232.852 110.394C232.852 111.3 232.768 112.164 232.6 112.986C232.432 113.808 232.162 114.537 231.79 115.173C231.424 115.803 230.944 116.301 230.35 116.667C229.762 117.033 229.045 117.216 228.199 117.216ZM228.199 115.047C228.601 115.047 228.937 114.894 229.207 114.588C229.483 114.276 229.69 113.778 229.828 113.094C229.966 112.41 230.035 111.51 230.035 110.394C230.035 109.272 229.966 108.372 229.828 107.694C229.69 107.01 229.483 106.512 229.207 106.2C228.937 105.888 228.601 105.732 228.199 105.732C227.803 105.732 227.467 105.888 227.191 106.2C226.915 106.512 226.708 107.01 226.57 107.694C226.432 108.372 226.363 109.272 226.363 110.394C226.363 111.516 226.432 112.419 226.57 113.103C226.708 113.781 226.915 114.276 227.191 114.588C227.467 114.894 227.803 115.047 228.199 115.047ZM244.943 104.706L234.989 116.667L234.008 115.839L243.971 103.878L244.943 104.706ZM236.645 108.351C236.201 108.351 235.784 108.261 235.394 108.081C235.01 107.895 234.698 107.628 234.458 107.28C234.224 106.932 234.107 106.521 234.107 106.047C234.107 105.561 234.224 105.147 234.458 104.805C234.698 104.457 235.01 104.19 235.394 104.004C235.784 103.812 236.201 103.716 236.645 103.716C237.095 103.716 237.515 103.812 237.905 104.004C238.301 104.19 238.619 104.457 238.859 104.805C239.105 105.147 239.228 105.561 239.228 106.047C239.228 106.521 239.105 106.932 238.859 107.28C238.619 107.628 238.301 107.895 237.905 108.081C237.515 108.261 237.095 108.351 236.645 108.351ZM236.645 107.217C236.855 107.217 237.059 107.178 237.257 107.1C237.461 107.016 237.626 106.887 237.752 106.713C237.884 106.539 237.95 106.317 237.95 106.047C237.95 105.765 237.884 105.537 237.752 105.363C237.626 105.189 237.461 105.063 237.257 104.985C237.059 104.901 236.855 104.859 236.645 104.859C236.435 104.859 236.231 104.901 236.033 104.985C235.841 105.063 235.682 105.189 235.556 105.363C235.436 105.537 235.376 105.765 235.376 106.047C235.376 106.317 235.436 106.539 235.556 106.713C235.682 106.887 235.841 107.016 236.033 107.1C236.231 107.178 236.435 107.217 236.645 107.217ZM242.135 116.919C241.691 116.919 241.274 116.829 240.884 116.649C240.5 116.463 240.188 116.196 239.948 115.848C239.714 115.5 239.597 115.089 239.597 114.615C239.597 114.129 239.714 113.715 239.948 113.373C240.188 113.025 240.5 112.758 240.884 112.572C241.274 112.386 241.691 112.293 242.135 112.293C242.585 112.293 243.008 112.386 243.404 112.572C243.8 112.758 244.118 113.025 244.358 113.373C244.604 113.715 244.727 114.129 244.727 114.615C244.727 115.089 244.604 115.5 244.358 115.848C244.118 116.196 243.8 116.463 243.404 116.649C243.008 116.829 242.585 116.919 242.135 116.919ZM242.135 115.785C242.351 115.785 242.558 115.746 242.756 115.668C242.954 115.584 243.116 115.455 243.242 115.281C243.374 115.107 243.44 114.885 243.44 114.615C243.44 114.339 243.374 114.114 243.242 113.94C243.116 113.766 242.954 113.637 242.756 113.553C242.558 113.469 242.351 113.427 242.135 113.427C241.925 113.427 241.724 113.469 241.532 113.553C241.34 113.637 241.181 113.766 241.055 113.94C240.935 114.114 240.875 114.339 240.875 114.615C240.875 114.885 240.935 115.107 241.055 115.281C241.181 115.455 241.34 115.584 241.532 115.668C241.724 115.746 241.925 115.785 242.135 115.785Z" fill="#25324B"/>
<path d="M213.184 143V131.2H214.528V143H213.184ZM223.023 143V138.928C223.023 138.683 223.023 138.483 223.023 138.328C223.023 138.168 223.023 138.016 223.023 137.872C223.023 137.429 222.948 137.043 222.799 136.712C222.649 136.381 222.415 136.125 222.095 135.944C221.775 135.763 221.356 135.672 220.839 135.672C220.385 135.672 219.964 135.789 219.575 136.024C219.191 136.253 218.881 136.565 218.647 136.96C218.417 137.349 218.303 137.787 218.303 138.272L217.527 137.976C217.527 137.309 217.689 136.704 218.015 136.16C218.345 135.616 218.783 135.184 219.327 134.864C219.876 134.539 220.473 134.376 221.119 134.376C221.775 134.376 222.348 134.501 222.839 134.752C223.329 135.003 223.708 135.363 223.975 135.832C224.247 136.296 224.383 136.856 224.383 137.512C224.383 137.747 224.383 138.003 224.383 138.28C224.383 138.557 224.383 138.816 224.383 139.056V143H223.023ZM216.943 143V134.504H218.303V143H216.943ZM229.881 143.128C229.62 143.128 229.364 143.099 229.113 143.04C228.862 142.981 228.636 142.877 228.433 142.728C228.236 142.573 228.078 142.357 227.961 142.08C227.844 141.797 227.785 141.435 227.785 140.992C227.785 140.88 227.785 140.765 227.785 140.648C227.785 140.525 227.785 140.397 227.785 140.264V135.704H225.713V134.504H227.041C227.222 134.504 227.364 134.499 227.465 134.488C227.566 134.472 227.638 134.437 227.681 134.384C227.729 134.325 227.758 134.237 227.769 134.12C227.78 133.997 227.785 133.829 227.785 133.616V131.688H229.153V134.504H231.809V135.704H229.153V139.824C229.153 139.941 229.153 140.056 229.153 140.168C229.153 140.28 229.153 140.384 229.153 140.48C229.153 140.933 229.206 141.288 229.313 141.544C229.425 141.8 229.673 141.928 230.057 141.928C230.212 141.928 230.358 141.915 230.497 141.888C230.636 141.861 230.74 141.835 230.809 141.808V142.992C230.718 143.024 230.59 143.053 230.425 143.08C230.265 143.112 230.084 143.128 229.881 143.128ZM233.711 139.296V138.08H240.279L240.039 138.48C240.039 138.448 240.039 138.419 240.039 138.392C240.039 138.36 240.039 138.331 240.039 138.304C240.039 137.813 239.935 137.365 239.727 136.96C239.524 136.549 239.22 136.221 238.815 135.976C238.41 135.731 237.908 135.608 237.311 135.608C236.708 135.608 236.178 135.736 235.719 135.992C235.26 136.248 234.903 136.611 234.647 137.08C234.391 137.544 234.263 138.099 234.263 138.744C234.263 139.4 234.386 139.965 234.631 140.44C234.882 140.915 235.236 141.28 235.695 141.536C236.154 141.792 236.698 141.92 237.327 141.92C237.775 141.92 238.164 141.875 238.495 141.784C238.826 141.688 239.098 141.563 239.311 141.408C239.53 141.248 239.695 141.075 239.807 140.888C239.919 140.701 239.986 140.515 240.007 140.328H241.367C241.34 140.669 241.234 141.008 241.047 141.344C240.86 141.68 240.596 141.987 240.255 142.264C239.914 142.536 239.495 142.755 238.999 142.92C238.503 143.085 237.932 143.168 237.287 143.168C236.434 143.168 235.682 142.981 235.031 142.608C234.38 142.235 233.868 141.717 233.495 141.056C233.127 140.395 232.943 139.635 232.943 138.776C232.943 137.907 233.13 137.144 233.503 136.488C233.876 135.827 234.391 135.309 235.047 134.936C235.703 134.563 236.452 134.376 237.295 134.376C238.154 134.376 238.898 134.563 239.527 134.936C240.156 135.309 240.642 135.821 240.983 136.472C241.324 137.117 241.495 137.853 241.495 138.68C241.495 138.765 241.492 138.877 241.487 139.016C241.482 139.155 241.474 139.248 241.463 139.296H233.711ZM243.615 143V134.504H244.975V137.112L244.527 136.952C244.559 136.637 244.639 136.328 244.767 136.024C244.895 135.715 245.071 135.437 245.295 135.192C245.524 134.941 245.809 134.744 246.151 134.6C246.492 134.451 246.892 134.376 247.351 134.376C247.692 134.376 247.969 134.405 248.183 134.464C248.401 134.517 248.537 134.56 248.591 134.592L248.239 135.928C248.185 135.891 248.076 135.843 247.911 135.784C247.751 135.725 247.521 135.696 247.223 135.696C246.78 135.696 246.412 135.776 246.119 135.936C245.831 136.096 245.601 136.309 245.431 136.576C245.265 136.837 245.148 137.123 245.079 137.432C245.009 137.741 244.975 138.048 244.975 138.352V143H243.615ZM256.844 134.504L253.996 143H252.212L249.3 134.504H250.708L253.212 142.28H252.996L255.436 134.504H256.844ZM258.632 143V134.504H259.976V143H258.632ZM259.312 132.552C259.061 132.552 258.843 132.483 258.656 132.344C258.475 132.2 258.384 132.005 258.384 131.76C258.384 131.52 258.475 131.331 258.656 131.192C258.843 131.048 259.061 130.976 259.312 130.976C259.563 130.976 259.779 131.048 259.96 131.192C260.141 131.331 260.232 131.52 260.232 131.76C260.232 132.005 260.141 132.2 259.96 132.344C259.779 132.483 259.563 132.552 259.312 132.552ZM262.945 139.296V138.08H269.513L269.273 138.48C269.273 138.448 269.273 138.419 269.273 138.392C269.273 138.36 269.273 138.331 269.273 138.304C269.273 137.813 269.169 137.365 268.961 136.96C268.759 136.549 268.455 136.221 268.049 135.976C267.644 135.731 267.143 135.608 266.545 135.608C265.943 135.608 265.412 135.736 264.953 135.992C264.495 136.248 264.137 136.611 263.881 137.08C263.625 137.544 263.497 138.099 263.497 138.744C263.497 139.4 263.62 139.965 263.865 140.44C264.116 140.915 264.471 141.28 264.929 141.536C265.388 141.792 265.932 141.92 266.561 141.92C267.009 141.92 267.399 141.875 267.729 141.784C268.06 141.688 268.332 141.563 268.545 141.408C268.764 141.248 268.929 141.075 269.041 140.888C269.153 140.701 269.22 140.515 269.241 140.328H270.601C270.575 140.669 270.468 141.008 270.281 141.344C270.095 141.68 269.831 141.987 269.489 142.264C269.148 142.536 268.729 142.755 268.233 142.92C267.737 143.085 267.167 143.168 266.521 143.168C265.668 143.168 264.916 142.981 264.265 142.608C263.615 142.235 263.103 141.717 262.729 141.056C262.361 140.395 262.177 139.635 262.177 138.776C262.177 137.907 262.364 137.144 262.737 136.488C263.111 135.827 263.625 135.309 264.281 134.936C264.937 134.563 265.687 134.376 266.529 134.376C267.388 134.376 268.132 134.563 268.761 134.936C269.391 135.309 269.876 135.821 270.217 136.472C270.559 137.117 270.729 137.853 270.729 138.68C270.729 138.765 270.727 138.877 270.721 139.016C270.716 139.155 270.708 139.248 270.697 139.296H262.945ZM279.455 143L277.079 134.504H278.287L280.535 142.4H280.287L281.775 134.504H283.191L281.359 143H279.455ZM273.711 143L271.863 134.504H273.279L274.783 142.4H274.535L276.759 134.504H277.967L275.623 143H273.711ZM285.18 139.296V138.08H291.748L291.508 138.48C291.508 138.448 291.508 138.419 291.508 138.392C291.508 138.36 291.508 138.331 291.508 138.304C291.508 137.813 291.404 137.365 291.196 136.96C290.993 136.549 290.689 136.221 290.284 135.976C289.878 135.731 289.377 135.608 288.78 135.608C288.177 135.608 287.646 135.736 287.188 135.992C286.729 136.248 286.372 136.611 286.116 137.08C285.86 137.544 285.732 138.099 285.732 138.744C285.732 139.4 285.854 139.965 286.1 140.44C286.35 140.915 286.705 141.28 287.164 141.536C287.622 141.792 288.166 141.92 288.796 141.92C289.244 141.92 289.633 141.875 289.964 141.784C290.294 141.688 290.566 141.563 290.78 141.408C290.998 141.248 291.164 141.075 291.276 140.888C291.388 140.701 291.454 140.515 291.476 140.328H292.836C292.809 140.669 292.702 141.008 292.516 141.344C292.329 141.68 292.065 141.987 291.724 142.264C291.382 142.536 290.964 142.755 290.468 142.92C289.972 143.085 289.401 143.168 288.756 143.168C287.902 143.168 287.15 142.981 286.5 142.608C285.849 142.235 285.337 141.717 284.964 141.056C284.596 140.395 284.412 139.635 284.412 138.776C284.412 137.907 284.598 137.144 284.972 136.488C285.345 135.827 285.86 135.309 286.516 134.936C287.172 134.563 287.921 134.376 288.764 134.376C289.622 134.376 290.366 134.563 290.996 134.936C291.625 135.309 292.11 135.821 292.452 136.472C292.793 137.117 292.964 137.853 292.964 138.68C292.964 138.765 292.961 138.877 292.956 139.016C292.95 139.155 292.942 139.248 292.932 139.296H285.18ZM298.587 143.16C297.889 143.16 297.249 142.992 296.667 142.656C296.086 142.315 295.622 141.816 295.275 141.16C294.929 140.499 294.755 139.693 294.755 138.744C294.755 137.811 294.931 137.019 295.283 136.368C295.635 135.717 296.102 135.224 296.683 134.888C297.265 134.547 297.899 134.376 298.587 134.376C299.243 134.376 299.857 134.533 300.427 134.848C301.003 135.157 301.467 135.589 301.819 136.144C302.171 136.699 302.347 137.341 302.347 138.072C302.347 138.088 302.347 138.104 302.347 138.12C302.347 138.136 302.347 138.152 302.347 138.168L301.371 138.208C301.371 138.192 301.371 138.176 301.371 138.16C301.371 138.139 301.371 138.12 301.371 138.104C301.371 137.64 301.249 137.221 301.003 136.848C300.763 136.475 300.446 136.179 300.051 135.96C299.657 135.736 299.233 135.624 298.779 135.624C298.022 135.624 297.395 135.88 296.899 136.392C296.403 136.899 296.155 137.683 296.155 138.744C296.155 139.8 296.403 140.587 296.899 141.104C297.401 141.616 298.027 141.872 298.779 141.872C299.254 141.872 299.686 141.757 300.075 141.528C300.47 141.299 300.785 140.992 301.019 140.608C301.254 140.219 301.371 139.784 301.371 139.304L302.347 139.328C302.347 140.053 302.179 140.707 301.843 141.288C301.507 141.864 301.054 142.32 300.483 142.656C299.918 142.992 299.286 143.16 298.587 143.16ZM301.371 143V130.496H302.739V143H301.371Z" fill="#7C8493"/>
<defs>
<filter id="filter0_d_352_22794" x="58.1176" y="0.117646" width="129.647" height="191.132" filterUnits="userSpaceOnUse" color-interpolation-filters="sRGB">
<feFlood flood-opacity="0" result="BackgroundImageFix"/>
<feColorMatrix in="SourceAlpha" type="matrix" values="0 0 0 0 0 0 0 0 0 0 0 0 0 0 0 0 0 0 127 0" result="hardAlpha"/>
<feOffset dx="8.94118" dy="8.94118"/>
<feGaussianBlur stdDeviation="13.4118"/>
<feComposite in2="hardAlpha" operator="out"/>
<feColorMatrix type="matrix" values="0 0 0 0 0.27451 0 0 0 0 0.25098 0 0 0 0 0.870588 0 0 0 0.2 0"/>
<feBlend mode="normal" in2="BackgroundImageFix" result="effect1_dropShadow_352_22794"/>
<feBlend mode="normal" in="SourceGraphic" in2="effect1_dropShadow_352_22794" result="shape"/>
</filter>
</defs>
</svg>
